<svg version="1.1" id="Layer_1" xmlns="http://www.w3.org/2000/svg" xmlns:xlink="http://www.w3.org/1999/xlink" x="0px" y="0px"
	 width="100%" viewBox="0 0 396 383" enable-background="new 0 0 396 383" xml:space="preserve">
<path fill="#000000" opacity="1.000000" stroke="none" 
	d="
M230.000000,384.000000 
	C153.333328,384.000000 77.166664,384.000000 1.000000,384.000000 
	C1.000000,256.333344 1.000000,128.666672 1.000000,1.000000 
	C133.000000,1.000000 265.000000,1.000000 397.000000,1.000000 
	C397.000000,128.666672 397.000000,256.333344 397.000000,384.000000 
	C341.500000,384.000000 286.000000,384.000000 230.000000,384.000000 
M250.774826,310.215820 
	C250.774826,310.215820 250.386917,310.090546 250.072144,309.614777 
	C249.395828,309.367065 248.719513,309.119354 247.818390,308.267059 
	C247.697205,307.862427 247.354248,307.206207 247.486771,307.089386 
	C253.021225,302.210449 253.499649,295.846283 252.968262,289.106445 
	C252.483978,282.964050 247.537277,273.723633 240.284073,272.841217 
	C233.946533,272.070221 227.572693,271.463135 221.199631,271.258148 
	C220.202209,271.226044 218.227081,273.710693 218.215714,275.044495 
	C218.014145,298.681915 217.994904,322.321655 218.166885,345.959259 
	C218.176529,347.284180 220.144424,349.700623 221.260483,349.736145 
	C229.878326,350.010437 238.666351,350.983246 246.558853,345.995514 
	C252.481842,342.252411 255.485718,336.923798 255.977264,329.101807 
	C255.354279,325.050934 254.731293,321.000031 254.028717,316.268951 
	C253.396759,315.164276 252.764786,314.059570 252.012497,312.395020 
	C251.643173,311.797424 251.273849,311.199860 250.774826,310.215820 
M289.405640,183.902939 
	C296.359650,171.980820 303.424927,160.120636 310.134827,148.062698 
	C311.031311,146.451721 310.841095,143.461548 309.935822,141.757172 
	C306.112946,134.559921 301.807220,127.620171 297.717560,120.563370 
	C284.066986,97.009056 270.500977,73.404999 256.661713,49.962208 
	C255.584641,48.137714 252.645081,46.352493 250.560974,46.340660 
	C215.418976,46.141064 180.274948,46.163654 145.133163,46.401417 
	C142.998016,46.415867 140.081116,48.116386 138.891418,49.927849 
	C134.248840,56.996769 130.120880,64.406265 125.864006,71.725433 
	C112.414909,94.849518 98.935883,117.956833 85.676636,141.189453 
	C84.657791,142.974670 84.388275,146.125580 85.270065,147.893936 
	C88.948586,155.270844 93.118027,162.409637 97.257454,169.548782 
	C110.826035,192.950119 124.397781,216.350388 138.184174,239.623199 
	C139.321533,241.543182 142.077637,243.709152 144.095978,243.723389 
	C180.070114,243.977203 216.046509,243.937256 252.022079,243.835342 
	C253.340057,243.831604 255.210190,242.900375 255.881348,241.817673 
	C260.661438,234.106461 265.283936,226.293335 269.788391,218.416489 
	C276.236237,207.141281 282.540802,195.784149 289.405640,183.902939 
M71.828369,231.130157 
	C76.175491,223.462723 80.090164,215.501816 85.023613,208.232285 
	C88.248428,203.480453 87.981133,199.754913 85.029266,195.391830 
	C83.041458,192.453690 81.394600,189.284210 79.607361,186.211166 
	C72.123306,173.342850 64.611153,160.490540 57.223930,147.566833 
	C56.624454,146.518082 56.311661,144.644791 56.842552,143.708633 
	C66.352676,126.938843 75.982666,110.236588 85.666344,93.565971 
	C87.823135,89.853027 88.697479,86.605789 85.417679,82.833450 
	C83.209610,80.293777 81.983696,76.908165 80.270508,73.928528 
	C77.034737,68.300720 73.764450,62.692753 70.109337,56.388020 
	C68.708809,58.265591 67.544617,59.552727 66.686569,61.019016 
	C58.225899,75.477158 49.810398,89.961746 41.393600,104.445518 
	C34.608093,116.122124 27.952652,127.876610 20.994926,139.449493 
	C18.792233,143.113266 18.222198,146.101776 20.608320,150.025833 
	C27.712534,161.708923 34.446350,173.617645 41.301445,185.451767 
	C49.996346,200.462021 58.622753,215.512527 67.459251,230.438782 
	C68.008133,231.365921 70.129410,231.362183 71.828369,231.130157 
M356.398132,109.065231 
	C346.298798,91.730377 336.199432,74.395531 326.047028,56.969589 
	C325.157684,57.644558 324.637634,57.853657 324.414185,58.236061 
	C318.876190,67.712807 313.296753,77.167336 307.957336,86.755386 
	C307.347687,87.850166 307.656830,89.960396 308.319244,91.174644 
	C311.595795,97.180481 315.158020,103.029747 318.575500,108.959572 
	C325.027100,120.154030 331.495850,131.339294 337.814697,142.608475 
	C338.501282,143.832901 338.933105,145.972565 338.330444,147.032074 
	C328.742249,163.888596 319.086792,180.710449 309.126434,197.348480 
	C307.223907,200.526550 307.162048,202.774261 309.007355,205.808212 
	C312.221222,211.092316 314.952728,216.667664 318.091553,222.000183 
	C320.357910,225.850479 322.956604,229.505127 325.945068,234.068466 
	C327.332306,231.627136 328.110565,230.259476 328.886993,228.890808 
	C333.879028,220.090927 338.827240,211.265854 343.871460,202.496002 
	C354.253540,184.445709 364.654419,166.405960 375.139282,148.415298 
	C376.490692,146.096420 376.738159,144.242538 375.303467,141.804794 
	C369.037384,131.158020 362.962982,120.398460 356.398132,109.065231 
M156.266403,271.087799 
	C153.569717,271.417694 150.873032,271.747559 147.828156,272.120026 
	C147.828156,285.926910 147.828156,299.258057 147.828156,313.989471 
	C146.406876,311.566254 145.546005,310.424316 145.017166,309.145111 
	C140.924606,299.245941 136.621201,289.420258 132.962845,279.360992 
	C131.106400,274.256439 129.218872,271.043274 122.835846,271.822906 
	C116.491241,272.597809 116.339409,272.088348 116.322495,278.869598 
	C116.270981,299.523987 116.133408,320.178833 116.226852,340.832581 
	C116.278549,352.259277 113.930557,350.662384 126.705536,350.907379 
	C129.606277,350.962982 131.036499,350.153809 130.942017,346.991699 
	C130.728333,339.839905 130.695511,332.682190 130.635635,325.526489 
	C130.593384,320.477661 130.627457,315.428192 130.627457,310.379028 
	C132.606201,311.860016 133.463593,313.359985 134.137665,314.938232 
	C138.755295,325.750092 143.247757,336.616486 147.976608,347.379150 
	C149.482010,350.805359 154.485611,352.077179 159.212769,350.809998 
	C162.894012,349.823181 161.910461,346.881561 161.913452,344.431976 
	C161.940918,321.942596 161.851578,299.452667 161.990509,276.964111 
	C162.013321,273.273682 160.722687,271.423462 156.266403,271.087799 
M165.997604,327.499939 
	C166.008652,333.323944 166.235092,339.158386 165.953613,344.968231 
	C165.771637,348.723877 167.415848,350.060577 170.776703,349.898499 
	C176.349274,349.629700 181.937775,349.450531 187.481247,348.868591 
	C199.269196,347.631042 206.764435,340.958527 211.020065,330.066467 
	C216.018387,317.273529 215.381195,304.286987 211.563843,291.616272 
	C209.096375,283.426239 203.459396,277.188629 195.132385,273.489532 
	C187.780685,270.223694 180.243042,271.311462 172.735657,271.117645 
	C167.055908,270.970947 166.055725,272.078674 166.046341,277.577484 
	C166.018539,293.884979 166.012283,310.192505 165.997604,327.499939 
M316.784668,323.372498 
	C317.108978,315.945282 317.975739,308.491638 317.615326,301.097778 
	C317.198547,292.547150 314.022247,284.892609 307.238647,279.079010 
	C296.422821,269.809814 282.785004,269.615021 272.527405,277.185699 
	C260.204071,286.281067 259.757507,300.098724 259.313324,313.499969 
	C259.139374,318.748444 260.719391,324.178955 262.178894,329.334534 
	C266.646057,345.114410 283.039062,355.973145 300.046265,348.210480 
	C310.335541,343.514130 314.556824,334.574127 316.784668,323.372498 
M357.787933,304.444122 
	C362.052002,295.546265 366.400208,286.686890 370.502869,277.715210 
	C371.244293,276.093811 370.977570,274.011353 371.176270,272.141754 
	C369.484467,272.084106 367.792999,272.007111 366.100708,271.975403 
	C364.937103,271.953613 363.764099,272.090088 362.609589,271.990295 
	C358.513885,271.636322 356.414948,273.455841 355.005432,277.385010 
	C353.261017,282.247925 350.598846,286.781586 347.751251,292.658417 
	C346.429230,288.986023 345.584808,286.743835 344.812286,284.477142 
	C340.641968,272.240570 338.294525,270.412140 328.341736,271.313202 
	C324.684326,271.644318 323.806458,273.228455 325.308838,276.495575 
	C329.870850,286.416199 334.440918,296.334290 338.845215,306.325073 
	C339.491821,307.791840 339.842560,309.863983 339.320923,311.285767 
	C337.418640,316.471069 335.240021,321.570892 332.882263,326.569275 
	C329.752655,333.203979 326.247253,339.662781 323.184113,346.326233 
	C322.670166,347.444183 323.515045,350.478027 323.837311,350.493896 
	C328.128448,350.705566 332.605682,351.191589 336.664856,350.154480 
	C338.393341,349.712891 339.382050,345.945465 340.476410,343.582611 
	C341.420441,341.544250 341.940277,339.313080 342.820618,337.240662 
	C344.345795,333.650330 346.004791,330.116913 348.126343,325.408447 
	C350.853119,331.587036 352.970245,336.480347 355.165192,341.338470 
	C360.243988,352.579590 357.140167,350.551941 368.585449,350.723267 
	C374.219177,350.807617 374.973755,349.479248 372.496582,344.392853 
	C367.593201,334.324768 362.710999,324.246368 357.849823,314.157867 
	C356.434204,311.220093 354.944153,308.235413 357.787933,304.444122 
M76.183823,300.468414 
	C72.697334,316.009308 69.188286,331.545319 65.793915,347.106293 
	C65.631737,347.849701 66.270775,349.345123 66.895195,349.595154 
	C74.659775,352.704559 80.532158,349.103973 81.001823,341.097137 
	C81.020103,340.785461 81.208618,340.483765 81.328339,340.181152 
	C93.602905,337.165436 97.483078,338.585266 99.674797,349.603943 
	C103.955498,349.603943 108.239960,349.603943 113.229576,349.603943 
	C107.619789,323.635101 102.081772,297.998505 96.462379,271.985168 
	C92.776825,271.985168 89.287560,272.189148 85.833725,271.926727 
	C82.507812,271.674011 81.703644,273.453857 81.162605,276.200714 
	C79.621574,284.024506 77.876488,291.808105 76.183823,300.468414 
M52.149349,272.208252 
	C39.184845,267.729218 24.265776,276.336975 23.217052,293.221130 
	C22.775314,300.333008 27.091095,305.015320 31.469992,309.533813 
	C35.714779,313.913940 40.487949,317.777344 44.835613,322.063904 
	C48.338081,325.517151 48.068272,330.127808 46.588699,334.084717 
	C45.095413,338.078308 40.932846,338.875122 37.023998,338.185181 
	C34.525867,337.744232 32.191261,336.373962 29.785192,335.415710 
	C28.763367,335.008789 26.902422,334.142059 26.849482,334.241760 
	C25.218252,337.314301 23.317736,340.371826 22.507313,343.687897 
	C22.192341,344.976685 24.143570,347.997375 25.503267,348.309601 
	C30.851164,349.537598 36.360920,350.495483 41.835522,350.645813 
	C53.044060,350.953674 61.203442,342.804535 61.919830,331.657715 
	C62.448917,323.425201 58.919777,316.940979 53.549885,311.339844 
	C49.211185,306.814301 43.913662,303.142212 39.971535,298.329681 
	C37.975792,295.893280 37.277348,291.722321 37.490044,288.432434 
	C37.596298,286.788879 41.002060,284.222473 43.031227,284.106873 
	C46.042393,283.935394 49.156384,285.569305 53.125996,286.688232 
	C53.956635,284.369751 54.733639,281.628143 55.906132,279.067596 
	C57.514507,275.555176 56.656315,273.377899 52.149349,272.208252 
z"/>
<path fill="#F98A04" opacity="1.000000" stroke="none" 
	d="
M289.156097,184.182465 
	C282.540802,195.784149 276.236237,207.141281 269.788391,218.416489 
	C265.283936,226.293335 260.661438,234.106461 255.881348,241.817673 
	C255.210190,242.900375 253.340057,243.831604 252.022079,243.835342 
	C216.046509,243.937256 180.070114,243.977203 144.095978,243.723389 
	C142.077637,243.709152 139.321533,241.543182 138.184174,239.623199 
	C124.397781,216.350388 110.826035,192.950119 97.257454,169.548782 
	C93.118027,162.409637 88.948586,155.270844 85.270065,147.893936 
	C84.388275,146.125580 84.657791,142.974670 85.676636,141.189453 
	C98.935883,117.956833 112.414909,94.849518 125.864006,71.725433 
	C130.120880,64.406265 134.248840,56.996769 138.891418,49.927849 
	C140.081116,48.116386 142.998016,46.415867 145.133163,46.401417 
	C180.274948,46.163654 215.418976,46.141064 250.560974,46.340660 
	C252.645081,46.352493 255.584641,48.137714 256.661713,49.962208 
	C270.500977,73.404999 284.066986,97.009056 297.717560,120.563370 
	C301.807220,127.620171 306.112946,134.559921 309.935822,141.757172 
	C310.841095,143.461548 311.031311,146.451721 310.134827,148.062698 
	C303.424927,160.120636 296.359650,171.980820 289.156097,184.182465 
M225.458054,211.094742 
	C228.124176,211.090729 230.813263,211.290390 233.446381,210.993591 
	C234.693909,210.852982 236.319473,210.064377 236.945740,209.055405 
	C241.404617,201.871689 245.715363,194.593201 249.947250,187.272034 
	C256.530212,175.883514 262.953522,164.402481 269.565277,153.030899 
	C272.615417,147.785019 274.443939,142.892792 269.403107,137.609665 
	C267.444275,135.556686 266.515778,132.534027 265.057892,129.987488 
	C256.152954,114.432953 247.191193,98.910728 238.347961,83.321236 
	C236.601578,80.242592 234.594315,78.750664 230.733170,78.795036 
	C211.240051,79.019089 191.729218,79.311050 172.253036,78.688881 
	C163.155899,78.398270 156.033096,79.315842 153.595352,89.590530 
	C153.278595,90.925621 151.897324,91.977783 151.157532,93.247467 
	C141.817429,109.277657 132.383789,125.256325 123.345253,141.455276 
	C122.275192,143.373047 122.560318,146.976273 123.663284,149.016464 
	C128.458557,157.886536 133.855621,166.428741 138.908829,175.162506 
	C145.368057,186.326416 151.640076,197.599426 158.193924,208.706726 
	C158.901993,209.906738 160.914520,210.931931 162.370300,210.999710 
	C172.068176,211.451263 181.779480,211.836365 191.485886,211.823898 
	C202.480576,211.809784 213.474716,211.356903 225.458054,211.094742 
M202.500137,53.799557 
	C184.061249,53.799557 165.622375,53.799557 147.136871,53.799557 
	C147.835480,61.390694 151.583405,65.155075 157.953796,65.155540 
	C184.927261,65.157494 211.900848,65.192070 238.873840,65.079659 
	C240.609436,65.072433 242.939316,64.422989 243.949005,63.206207 
	C246.070801,60.649174 247.498169,57.515911 249.695541,53.798840 
	C233.679321,53.798840 218.589737,53.798840 202.500137,53.799557 
M205.500244,224.905518 
	C190.021637,224.904663 174.524002,225.345657 159.074020,224.680206 
	C153.098480,224.422836 150.408386,227.001541 148.178177,231.455704 
	C147.477798,232.854492 147.044556,234.387024 146.435883,235.999115 
	C180.488220,235.999115 214.419235,235.999115 248.367249,235.999115 
	C245.821472,226.640778 243.675598,224.931854 234.461441,224.925079 
	C225.140961,224.918213 215.820465,224.927658 205.500244,224.905518 
z"/>
<path fill="#FB8A02" opacity="1.000000" stroke="none" 
	d="
M71.673744,231.460846 
	C70.129410,231.362183 68.008133,231.365921 67.459251,230.438782 
	C58.622753,215.512527 49.996346,200.462021 41.301445,185.451767 
	C34.446350,173.617645 27.712534,161.708923 20.608320,150.025833 
	C18.222198,146.101776 18.792233,143.113266 20.994926,139.449493 
	C27.952652,127.876610 34.608093,116.122124 41.393600,104.445518 
	C49.810398,89.961746 58.225899,75.477158 66.686569,61.019016 
	C67.544617,59.552727 68.708809,58.265591 70.109337,56.388020 
	C73.764450,62.692753 77.034737,68.300720 80.270508,73.928528 
	C81.983696,76.908165 83.209610,80.293777 85.417679,82.833450 
	C88.697479,86.605789 87.823135,89.853027 85.666344,93.565971 
	C75.982666,110.236588 66.352676,126.938843 56.842552,143.708633 
	C56.311661,144.644791 56.624454,146.518082 57.223930,147.566833 
	C64.611153,160.490540 72.123306,173.342850 79.607361,186.211166 
	C81.394600,189.284210 83.041458,192.453690 85.029266,195.391830 
	C87.981133,199.754913 88.248428,203.480453 85.023613,208.232285 
	C80.090164,215.501816 76.175491,223.462723 71.673744,231.460846 
z"/>
<path fill="#FB8A03" opacity="1.000000" stroke="none" 
	d="
M356.608582,109.372543 
	C362.962982,120.398460 369.037384,131.158020 375.303467,141.804794 
	C376.738159,144.242538 376.490692,146.096420 375.139282,148.415298 
	C364.654419,166.405960 354.253540,184.445709 343.871460,202.496002 
	C338.827240,211.265854 333.879028,220.090927 328.886993,228.890808 
	C328.110565,230.259476 327.332306,231.627136 325.945068,234.068466 
	C322.956604,229.505127 320.357910,225.850479 318.091553,222.000183 
	C314.952728,216.667664 312.221222,211.092316 309.007355,205.808212 
	C307.162048,202.774261 307.223907,200.526550 309.126434,197.348480 
	C319.086792,180.710449 328.742249,163.888596 338.330444,147.032074 
	C338.933105,145.972565 338.501282,143.832901 337.814697,142.608475 
	C331.495850,131.339294 325.027100,120.154030 318.575500,108.959572 
	C315.158020,103.029747 311.595795,97.180481 308.319244,91.174644 
	C307.656830,89.960396 307.347687,87.850166 307.957336,86.755386 
	C313.296753,77.167336 318.876190,67.712807 324.414185,58.236061 
	C324.637634,57.853657 325.157684,57.644558 326.047028,56.969589 
	C336.199432,74.395531 346.298798,91.730377 356.608582,109.372543 
z"/>
<path fill="#ECEAE8" opacity="1.000000" stroke="none" 
	d="
M156.703094,271.082031 
	C160.722687,271.423462 162.013321,273.273682 161.990509,276.964111 
	C161.851578,299.452667 161.940918,321.942596 161.913452,344.431976 
	C161.910461,346.881561 162.894012,349.823181 159.212769,350.809998 
	C154.485611,352.077179 149.482010,350.805359 147.976608,347.379150 
	C143.247757,336.616486 138.755295,325.750092 134.137665,314.938232 
	C133.463593,313.359985 132.606201,311.860016 130.627457,310.379028 
	C130.627457,315.428192 130.593384,320.477661 130.635635,325.526489 
	C130.695511,332.682190 130.728333,339.839905 130.942017,346.991699 
	C131.036499,350.153809 129.606277,350.962982 126.705536,350.907379 
	C113.930557,350.662384 116.278549,352.259277 116.226852,340.832581 
	C116.133408,320.178833 116.270981,299.523987 116.322495,278.869598 
	C116.339409,272.088348 116.491241,272.597809 122.835846,271.822906 
	C129.218872,271.043274 131.106400,274.256439 132.962845,279.360992 
	C136.621201,289.420258 140.924606,299.245941 145.017166,309.145111 
	C145.546005,310.424316 146.406876,311.566254 147.828156,313.989471 
	C147.828156,299.258057 147.828156,285.926910 147.828156,272.120026 
	C150.873032,271.747559 153.569717,271.417694 156.703094,271.082031 
z"/>
<path fill="#EEEEED" opacity="1.000000" stroke="none" 
	d="
M165.997604,326.999969 
	C166.012283,310.192505 166.018539,293.884979 166.046341,277.577484 
	C166.055725,272.078674 167.055908,270.970947 172.735657,271.117645 
	C180.243042,271.311462 187.780685,270.223694 195.132385,273.489532 
	C203.459396,277.188629 209.096375,283.426239 211.563843,291.616272 
	C215.381195,304.286987 216.018387,317.273529 211.020065,330.066467 
	C206.764435,340.958527 199.269196,347.631042 187.481247,348.868591 
	C181.937775,349.450531 176.349274,349.629700 170.776703,349.898499 
	C167.415848,350.060577 165.771637,348.723877 165.953613,344.968231 
	C166.235092,339.158386 166.008652,333.323944 165.997604,326.999969 
M186.766129,335.766602 
	C192.934830,333.327362 196.821289,328.217133 197.710388,322.312408 
	C198.861389,314.668274 198.689682,306.649597 197.828751,298.932587 
	C197.120148,292.581116 193.053925,287.614502 186.751114,285.232086 
	C182.053085,283.456268 179.983017,285.047333 179.981613,290.120483 
	C179.977966,303.414124 180.203003,316.712891 179.884140,329.998749 
	C179.768677,334.810120 181.104416,336.850555 186.766129,335.766602 
z"/>
<path fill="#EAE8E5" opacity="1.000000" stroke="none" 
	d="
M316.781067,323.806976 
	C314.556824,334.574127 310.335541,343.514130 300.046265,348.210480 
	C283.039062,355.973145 266.646057,345.114410 262.178894,329.334534 
	C260.719391,324.178955 259.139374,318.748444 259.313324,313.499969 
	C259.757507,300.098724 260.204071,286.281067 272.527405,277.185699 
	C282.785004,269.615021 296.422821,269.809814 307.238647,279.079010 
	C314.022247,284.892609 317.198547,292.547150 317.615326,301.097778 
	C317.975739,308.491638 317.108978,315.945282 316.781067,323.806976 
M282.603210,335.175018 
	C289.464142,339.252808 298.285614,336.623077 301.806305,327.670319 
	C307.000427,314.462036 306.522491,301.379059 298.905975,289.291809 
	C297.198120,286.581512 292.879822,284.656647 289.471954,284.073975 
	C284.061066,283.148834 277.390320,288.111420 276.053802,294.099060 
	C274.436646,301.343964 273.069794,308.856598 273.213440,316.221802 
	C273.351288,323.288116 275.600128,330.294891 282.603210,335.175018 
z"/>
<path fill="#EEEDEC" opacity="1.000000" stroke="none" 
	d="
M252.132812,312.954895 
	C252.764786,314.059570 253.396759,315.164276 253.799347,316.854095 
	C253.713791,320.469360 253.707977,323.517731 254.074829,326.520599 
	C254.222260,327.727448 255.187683,328.834381 255.780792,329.986786 
	C255.485718,336.923798 252.481842,342.252411 246.558853,345.995514 
	C238.666351,350.983246 229.878326,350.010437 221.260483,349.736145 
	C220.144424,349.700623 218.176529,347.284180 218.166885,345.959259 
	C217.994904,322.321655 218.014145,298.681915 218.215714,275.044495 
	C218.227081,273.710693 220.202209,271.226044 221.199631,271.258148 
	C227.572693,271.463135 233.946533,272.070221 240.284073,272.841217 
	C247.537277,273.723633 252.483978,282.964050 252.968262,289.106445 
	C253.499649,295.846283 253.021225,302.210449 247.486771,307.089386 
	C247.354248,307.206207 247.697205,307.862427 247.985321,308.925171 
	C248.897141,309.752380 249.642029,309.921448 250.386917,310.090546 
	C250.386917,310.090546 250.774826,310.215820 250.651855,310.714996 
	C251.063538,311.794403 251.598175,312.374664 252.132812,312.954895 
M240.994125,327.224304 
	C240.347336,324.277954 240.186874,321.087036 238.873718,318.475800 
	C238.069473,316.876556 235.497055,316.166473 233.718689,315.057068 
	C233.144302,316.615265 232.143509,318.154846 232.074677,319.735077 
	C231.859283,324.680084 231.995560,329.640472 231.995560,334.570831 
	C237.406860,335.069000 239.177689,333.753876 240.994125,327.224304 
M232.822128,302.670166 
	C238.299271,299.641235 241.365021,295.005157 239.631973,291.310638 
	C238.244934,288.353729 237.511780,283.660736 232.014740,285.343475 
	C232.014740,291.195984 232.014740,296.841705 232.822128,302.670166 
z"/>
<path fill="#E7E5E1" opacity="1.000000" stroke="none" 
	d="
M357.771545,304.837555 
	C354.944153,308.235413 356.434204,311.220093 357.849823,314.157867 
	C362.710999,324.246368 367.593201,334.324768 372.496582,344.392853 
	C374.973755,349.479248 374.219177,350.807617 368.585449,350.723267 
	C357.140167,350.551941 360.243988,352.579590 355.165192,341.338470 
	C352.970245,336.480347 350.853119,331.587036 348.126343,325.408447 
	C346.004791,330.116913 344.345795,333.650330 342.820618,337.240662 
	C341.940277,339.313080 341.420441,341.544250 340.476410,343.582611 
	C339.382050,345.945465 338.393341,349.712891 336.664856,350.154480 
	C332.605682,351.191589 328.128448,350.705566 323.837311,350.493896 
	C323.515045,350.478027 322.670166,347.444183 323.184113,346.326233 
	C326.247253,339.662781 329.752655,333.203979 332.882263,326.569275 
	C335.240021,321.570892 337.418640,316.471069 339.320923,311.285767 
	C339.842560,309.863983 339.491821,307.791840 338.845215,306.325073 
	C334.440918,296.334290 329.870850,286.416199 325.308838,276.495575 
	C323.806458,273.228455 324.684326,271.644318 328.341736,271.313202 
	C338.294525,270.412140 340.641968,272.240570 344.812286,284.477142 
	C345.584808,286.743835 346.429230,288.986023 347.751251,292.658417 
	C350.598846,286.781586 353.261017,282.247925 355.005432,277.385010 
	C356.414948,273.455841 358.513885,271.636322 362.609589,271.990295 
	C363.764099,272.090088 364.937103,271.953613 366.100708,271.975403 
	C367.792999,272.007111 369.484467,272.084106 371.176270,272.141754 
	C370.977570,274.011353 371.244293,276.093811 370.502869,277.715210 
	C366.400208,286.686890 362.052002,295.546265 357.771545,304.837555 
z"/>
<path fill="#E9E7E5" opacity="1.000000" stroke="none" 
	d="
M76.197769,300.037964 
	C77.876488,291.808105 79.621574,284.024506 81.162605,276.200714 
	C81.703644,273.453857 82.507812,271.674011 85.833725,271.926727 
	C89.287560,272.189148 92.776825,271.985168 96.462379,271.985168 
	C102.081772,297.998505 107.619789,323.635101 113.229576,349.603943 
	C108.239960,349.603943 103.955498,349.603943 99.674797,349.603943 
	C97.483078,338.585266 93.602905,337.165436 81.323074,340.179260 
	C81.208618,340.483765 81.020103,340.785461 81.001823,341.097137 
	C80.532158,349.103973 74.659775,352.704559 66.895195,349.595154 
	C66.270775,349.345123 65.631737,347.849701 65.793915,347.106293 
	C69.188286,331.545319 72.697334,316.009308 76.197769,300.037964 
M93.084724,324.497437 
	C92.068924,319.002563 91.053123,313.507690 90.037315,308.012817 
	C89.636421,307.977234 89.235519,307.941650 88.834625,307.906036 
	C87.573845,313.384003 86.313072,318.862000 84.884483,325.069092 
	C87.887100,325.069092 90.134125,325.069092 93.084724,324.497437 
z"/>
<path fill="#E6E3DF" opacity="1.000000" stroke="none" 
	d="
M52.549625,272.263794 
	C56.656315,273.377899 57.514507,275.555176 55.906132,279.067596 
	C54.733639,281.628143 53.956635,284.369751 53.125996,286.688232 
	C49.156384,285.569305 46.042393,283.935394 43.031227,284.106873 
	C41.002060,284.222473 37.596298,286.788879 37.490044,288.432434 
	C37.277348,291.722321 37.975792,295.893280 39.971535,298.329681 
	C43.913662,303.142212 49.211185,306.814301 53.549885,311.339844 
	C58.919777,316.940979 62.448917,323.425201 61.919830,331.657715 
	C61.203442,342.804535 53.044060,350.953674 41.835522,350.645813 
	C36.360920,350.495483 30.851164,349.537598 25.503267,348.309601 
	C24.143570,347.997375 22.192341,344.976685 22.507313,343.687897 
	C23.317736,340.371826 25.218252,337.314301 26.849482,334.241760 
	C26.902422,334.142059 28.763367,335.008789 29.785192,335.415710 
	C32.191261,336.373962 34.525867,337.744232 37.023998,338.185181 
	C40.932846,338.875122 45.095413,338.078308 46.588699,334.084717 
	C48.068272,330.127808 48.338081,325.517151 44.835613,322.063904 
	C40.487949,317.777344 35.714779,313.913940 31.469992,309.533813 
	C27.091095,305.015320 22.775314,300.333008 23.217052,293.221130 
	C24.265776,276.336975 39.184845,267.729218 52.549625,272.263794 
z"/>
<path fill="#F9FAFA" opacity="1.000000" stroke="none" 
	d="
M255.879028,329.544312 
	C255.187683,328.834381 254.222260,327.727448 254.074829,326.520599 
	C253.707977,323.517731 253.713791,320.469360 253.839127,317.194214 
	C254.731293,321.000031 255.354279,325.050934 255.879028,329.544312 
z"/>
<path fill="#F9FAFA" opacity="1.000000" stroke="none" 
	d="
M250.229523,309.852661 
	C249.642029,309.921448 248.897141,309.752380 248.097717,309.227478 
	C248.719513,309.119354 249.395828,309.367065 250.229523,309.852661 
z"/>
<path fill="#F9FAFA" opacity="1.000000" stroke="none" 
	d="
M252.072662,312.674957 
	C251.598175,312.374664 251.063538,311.794403 250.716705,310.908203 
	C251.273849,311.199860 251.643173,311.797424 252.072662,312.674957 
z"/>
<path fill="#000000" opacity="1.000000" stroke="none" 
	d="
M224.963562,211.094772 
	C213.474716,211.356903 202.480576,211.809784 191.485886,211.823898 
	C181.779480,211.836365 172.068176,211.451263 162.370300,210.999710 
	C160.914520,210.931931 158.901993,209.906738 158.193924,208.706726 
	C151.640076,197.599426 145.368057,186.326416 138.908829,175.162506 
	C133.855621,166.428741 128.458557,157.886536 123.663284,149.016464 
	C122.560318,146.976273 122.275192,143.373047 123.345253,141.455276 
	C132.383789,125.256325 141.817429,109.277657 151.157532,93.247467 
	C151.897324,91.977783 153.278595,90.925621 153.595352,89.590530 
	C156.033096,79.315842 163.155899,78.398270 172.253036,78.688881 
	C191.729218,79.311050 211.240051,79.019089 230.733170,78.795036 
	C234.594315,78.750664 236.601578,80.242592 238.347961,83.321236 
	C247.191193,98.910728 256.152954,114.432953 265.057892,129.987488 
	C266.515778,132.534027 267.444275,135.556686 269.403107,137.609665 
	C274.443939,142.892792 272.615417,147.785019 269.565277,153.030899 
	C262.953522,164.402481 256.530212,175.883514 249.947250,187.272034 
	C245.715363,194.593201 241.404617,201.871689 236.945740,209.055405 
	C236.319473,210.064377 234.693909,210.852982 233.446381,210.993591 
	C230.813263,211.290390 228.124176,211.090729 224.963562,211.094772 
z"/>
<path fill="#000000" opacity="1.000000" stroke="none" 
	d="
M203.000153,53.799198 
	C218.589737,53.798840 233.679321,53.798840 249.695541,53.798840 
	C247.498169,57.515911 246.070801,60.649174 243.949005,63.206207 
	C242.939316,64.422989 240.609436,65.072433 238.873840,65.079659 
	C211.900848,65.192070 184.927261,65.157494 157.953796,65.155540 
	C151.583405,65.155075 147.835480,61.390694 147.136871,53.799557 
	C165.622375,53.799557 184.061249,53.799557 203.000153,53.799198 
z"/>
<path fill="#000000" opacity="1.000000" stroke="none" 
	d="
M206.000122,224.917740 
	C215.820465,224.927658 225.140961,224.918213 234.461441,224.925079 
	C243.675598,224.931854 245.821472,226.640778 248.367249,235.999115 
	C214.419235,235.999115 180.488220,235.999115 146.435883,235.999115 
	C147.044556,234.387024 147.477798,232.854492 148.178177,231.455704 
	C150.408386,227.001541 153.098480,224.422836 159.074020,224.680206 
	C174.524002,225.345657 190.021637,224.904663 206.000122,224.917740 
z"/>
<path fill="#000000" opacity="1.000000" stroke="none" 
	d="
M186.365631,335.865295 
	C181.104416,336.850555 179.768677,334.810120 179.884140,329.998749 
	C180.203003,316.712891 179.977966,303.414124 179.981613,290.120483 
	C179.983017,285.047333 182.053085,283.456268 186.751114,285.232086 
	C193.053925,287.614502 197.120148,292.581116 197.828751,298.932587 
	C198.689682,306.649597 198.861389,314.668274 197.710388,322.312408 
	C196.821289,328.217133 192.934830,333.327362 186.365631,335.865295 
z"/>
<path fill="#000000" opacity="1.000000" stroke="none" 
	d="
M282.219269,335.090576 
	C275.600128,330.294891 273.351288,323.288116 273.213440,316.221802 
	C273.069794,308.856598 274.436646,301.343964 276.053802,294.099060 
	C277.390320,288.111420 284.061066,283.148834 289.471954,284.073975 
	C292.879822,284.656647 297.198120,286.581512 298.905975,289.291809 
	C306.522491,301.379059 307.000427,314.462036 301.806305,327.670319 
	C298.285614,336.623077 289.464142,339.252808 282.219269,335.090576 
z"/>
<path fill="#000000" opacity="1.000000" stroke="none" 
	d="
M240.993530,327.649963 
	C239.177689,333.753876 237.406860,335.069000 231.995560,334.570831 
	C231.995560,329.640472 231.859283,324.680084 232.074677,319.735077 
	C232.143509,318.154846 233.144302,316.615265 233.718689,315.057068 
	C235.497055,316.166473 238.069473,316.876556 238.873718,318.475800 
	C240.186874,321.087036 240.347336,324.277954 240.993530,327.649963 
z"/>
<path fill="#000000" opacity="1.000000" stroke="none" 
	d="
M232.418427,302.578796 
	C232.014740,296.841705 232.014740,291.195984 232.014740,285.343475 
	C237.511780,283.660736 238.244934,288.353729 239.631973,291.310638 
	C241.365021,295.005157 238.299271,299.641235 232.418427,302.578796 
z"/>
<path fill="#000000" opacity="1.000000" stroke="none" 
	d="
M92.732941,324.783264 
	C90.134125,325.069092 87.887100,325.069092 84.884483,325.069092 
	C86.313072,318.862000 87.573845,313.384003 88.834625,307.906036 
	C89.235519,307.941650 89.636421,307.977234 90.037315,308.012817 
	C91.053123,313.507690 92.068924,319.002563 92.732941,324.783264 
z"/>
</svg>